<svg width="13" height="14" viewBox="0 0 13 14" fill="none" xmlns="http://www.w3.org/2000/svg">
<path d="M3.5 4H7C9.20914 4 11 5.79086 11 8V8C11 10.2091 9.20914 12 7 12H2" stroke="black" stroke-width="4" stroke-linecap="round"/>
<path d="M3.5 2H7C9.20914 2 11 3.79086 11 6V6C11 8.20914 9.20914 10 7 10H2" stroke="black" stroke-width="4" stroke-linecap="round"/>
<path d="M3.5 2H7C9.20914 2 11 3.79086 11 6V6C11 8.20914 9.20914 10 7 10H2" stroke="white" stroke-width="3" stroke-linecap="round"/>
<path d="M3.5 2H7C9.20914 2 11 3.79086 11 6V6C11 8.20914 9.20914 10 7 10H2" stroke="white" stroke-width="3" stroke-linecap="round"/>
<path d="M3.5 2H7C9.20914 2 11 3.79086 11 6V6C11 8.20914 9.20914 10 7 10H2" stroke="white" stroke-width="3" stroke-linecap="round"/>
</svg>
