<svg width="78" height="19" viewBox="0 0 78 19" fill="none" xmlns="http://www.w3.org/2000/svg">
<rect x="57" y="5" width="5" height="8" fill="#B1FFD0"/>
<path d="M59.2 14.168C58.6027 14.168 58.0893 14.056 57.66 13.832C57.2307 13.5987 56.876 13.2673 56.596 12.838C56.316 12.4087 56.1107 11.8813 55.98 11.256C55.8493 10.6307 55.784 9.91667 55.784 9.114C55.784 8.32067 55.8493 7.61133 55.98 6.986C56.1107 6.35133 56.316 5.81933 56.596 5.39C56.876 4.96067 57.2307 4.634 57.66 4.41C58.0893 4.17667 58.6027 4.06 59.2 4.06C59.7973 4.06 60.3107 4.17667 60.74 4.41C61.1693 4.634 61.524 4.96067 61.804 5.39C62.084 5.81933 62.2893 6.35133 62.42 6.986C62.5507 7.61133 62.616 8.32067 62.616 9.114C62.616 9.91667 62.5507 10.6307 62.42 11.256C62.2893 11.8813 62.084 12.4087 61.804 12.838C61.524 13.2673 61.1693 13.5987 60.74 13.832C60.3107 14.056 59.7973 14.168 59.2 14.168ZM59.2 13.146C59.592 13.146 59.928 13.0713 60.208 12.922C60.488 12.7633 60.712 12.544 60.88 12.264C61.0573 11.984 61.188 11.648 61.272 11.256C61.356 10.8547 61.398 10.4067 61.398 9.912V8.316C61.398 7.83067 61.356 7.38733 61.272 6.986C61.188 6.58467 61.0573 6.244 60.88 5.964C60.712 5.684 60.488 5.46933 60.208 5.32C59.928 5.16133 59.592 5.082 59.2 5.082C58.808 5.082 58.472 5.16133 58.192 5.32C57.912 5.46933 57.6833 5.684 57.506 5.964C57.338 6.244 57.212 6.58467 57.128 6.986C57.044 7.38733 57.002 7.83067 57.002 8.316V9.912C57.002 10.4067 57.044 10.8547 57.128 11.256C57.212 11.648 57.338 11.984 57.506 12.264C57.6833 12.544 57.912 12.7633 58.192 12.922C58.472 13.0713 58.808 13.146 59.2 13.146ZM59.2 9.94C58.8733 9.94 58.6447 9.87467 58.514 9.744C58.3927 9.61333 58.332 9.45467 58.332 9.268V8.96C58.332 8.77333 58.3927 8.61467 58.514 8.484C58.6447 8.35333 58.8733 8.288 59.2 8.288C59.5267 8.288 59.7507 8.35333 59.872 8.484C60.0027 8.61467 60.068 8.77333 60.068 8.96V9.268C60.068 9.45467 60.0027 9.61333 59.872 9.744C59.7507 9.87467 59.5267 9.94 59.2 9.94ZM67.5665 14.168C66.6892 14.168 65.9705 14.0093 65.4105 13.692C64.8505 13.3653 64.3885 12.95 64.0245 12.446L64.8785 11.746C65.2612 12.222 65.6625 12.5767 66.0825 12.81C66.5119 13.0433 67.0205 13.16 67.6085 13.16C68.3179 13.16 68.8592 12.9967 69.2325 12.67C69.6059 12.3433 69.7925 11.886 69.7925 11.298C69.7925 10.822 69.6572 10.4533 69.3865 10.192C69.1159 9.92133 68.6445 9.73 67.9725 9.618L66.8805 9.436C66.4045 9.352 66.0032 9.226 65.6765 9.058C65.3592 8.89 65.1025 8.68933 64.9065 8.456C64.7105 8.21333 64.5705 7.952 64.4865 7.672C64.4025 7.38267 64.3605 7.084 64.3605 6.776C64.3605 5.88 64.6545 5.20333 65.2425 4.746C65.8305 4.28867 66.6239 4.06 67.6225 4.06C68.4065 4.06 69.0645 4.19067 69.5965 4.452C70.1379 4.71333 70.5719 5.082 70.8985 5.558L70.0725 6.272C69.8019 5.91733 69.4752 5.628 69.0925 5.404C68.7099 5.18 68.2152 5.068 67.6085 5.068C66.9459 5.068 66.4372 5.208 66.0825 5.488C65.7279 5.768 65.5505 6.188 65.5505 6.748C65.5505 7.18667 65.6812 7.546 65.9425 7.826C66.2132 8.09667 66.6939 8.29267 67.3845 8.414L68.4345 8.596C68.9105 8.68 69.3119 8.806 69.6385 8.974C69.9652 9.142 70.2265 9.34267 70.4225 9.576C70.6279 9.80933 70.7725 10.0707 70.8565 10.36C70.9405 10.6493 70.9825 10.9527 70.9825 11.27C70.9825 12.1753 70.6839 12.8847 70.0865 13.398C69.4985 13.9113 68.6585 14.168 67.5665 14.168Z" fill="black"/>
<path d="M57.66 13.832L56.705 15.5892C56.7149 15.5946 56.7249 15.5999 56.7349 15.6052L57.66 13.832ZM56.596 12.838L54.9208 13.9305L56.596 12.838ZM55.98 11.256L54.0223 11.6651L54.0223 11.6651L55.98 11.256ZM55.98 6.986L57.9377 7.39508L57.9389 7.38931L55.98 6.986ZM56.596 5.39L54.9208 4.29746L56.596 5.39ZM57.66 4.41L58.5851 6.18317C58.5951 6.17795 58.6051 6.17264 58.615 6.16725L57.66 4.41ZM60.74 4.41L59.785 6.16725C59.7949 6.17264 59.8049 6.17795 59.8149 6.18317L60.74 4.41ZM61.804 5.39L60.1288 6.48254L61.804 5.39ZM62.42 6.986L60.4611 7.38931L60.4623 7.39507L62.42 6.986ZM61.804 12.838L60.1288 11.7455L61.804 12.838ZM60.74 13.832L61.6651 15.6052C61.6751 15.5999 61.6851 15.5946 61.695 15.5892L60.74 13.832ZM60.208 12.922L61.1492 14.6867C61.1642 14.6787 61.1792 14.6705 61.194 14.662L60.208 12.922ZM60.88 12.264L59.1904 11.1939C59.1817 11.2075 59.1733 11.2212 59.165 11.235L60.88 12.264ZM61.272 11.256L63.2276 11.6751L63.2296 11.6657L61.272 11.256ZM61.272 6.986L63.2296 6.57627L63.2296 6.57627L61.272 6.986ZM60.88 5.964L59.165 6.99299C59.1733 7.0068 59.1817 7.0205 59.1904 7.0341L60.88 5.964ZM60.208 5.32L59.222 7.06004C59.2368 7.06846 59.2518 7.07668 59.2668 7.08471L60.208 5.32ZM58.192 5.32L59.1332 7.08471C59.1482 7.07668 59.1632 7.06846 59.178 7.06004L58.192 5.32ZM57.506 5.964L55.8164 4.8939C55.8077 4.9075 55.7993 4.9212 55.791 4.93501L57.506 5.964ZM57.128 6.986L55.1704 6.57627L55.1704 6.57627L57.128 6.986ZM57.128 11.256L55.1704 11.6657L55.1724 11.6751L57.128 11.256ZM57.506 12.264L55.791 13.293C55.7993 13.3068 55.8077 13.3205 55.8164 13.3341L57.506 12.264ZM58.192 12.922L57.206 14.662C57.2208 14.6705 57.2358 14.6787 57.2508 14.6867L58.192 12.922ZM58.514 9.744L57.0484 11.1049C57.0652 11.123 57.0823 11.1408 57.0998 11.1582L58.514 9.744ZM58.514 8.484L57.0998 7.06979C57.0823 7.08724 57.0652 7.10501 57.0484 7.1231L58.514 8.484ZM59.872 8.484L58.4064 9.8449C58.4232 9.86299 58.4403 9.88076 58.4578 9.89821L59.872 8.484ZM59.872 9.744L58.4578 8.32979C58.4403 8.34724 58.4232 8.36501 58.4064 8.3831L59.872 9.744ZM59.2 12.168C58.8508 12.168 58.6697 12.103 58.5851 12.0588L56.7349 15.6052C57.5089 16.009 58.3546 16.168 59.2 16.168V12.168ZM58.615 12.0748C58.4916 12.0077 58.3792 11.911 58.2712 11.7455L54.9208 13.9305C55.3728 14.6237 55.9697 15.1897 56.705 15.5892L58.615 12.0748ZM58.2712 11.7455C58.156 11.5687 58.0296 11.2866 57.9377 10.8469L54.0223 11.6651C54.1917 12.476 54.476 13.2486 54.9208 13.9305L58.2712 11.7455ZM57.9377 10.8469C57.8412 10.3852 57.784 9.8125 57.784 9.114H53.784C53.784 10.0208 53.8574 10.8761 54.0223 11.6651L57.9377 10.8469ZM57.784 9.114C57.784 8.42661 57.8409 7.85818 57.9377 7.39507L54.0223 6.57692C53.8577 7.36448 53.784 8.21472 53.784 9.114H57.784ZM57.9389 7.38931C58.0319 6.93789 58.159 6.65457 58.2712 6.48254L54.9208 4.29746C54.473 4.9841 54.1895 5.76478 54.0211 6.58269L57.9389 7.38931ZM58.2712 6.48254C58.3751 6.32327 58.478 6.23906 58.5851 6.18317L56.7349 2.63683C55.9833 3.02893 55.3769 3.59806 54.9208 4.29746L58.2712 6.48254ZM58.615 6.16725C58.6928 6.12496 58.8628 6.06 59.2 6.06V2.06C58.3425 2.06 57.4858 2.22837 56.705 2.65275L58.615 6.16725ZM59.2 6.06C59.5372 6.06 59.7072 6.12496 59.785 6.16725L61.695 2.65275C60.9142 2.22837 60.0575 2.06 59.2 2.06V6.06ZM59.8149 6.18317C59.922 6.23906 60.0249 6.32327 60.1288 6.48254L63.4792 4.29746C63.0231 3.59806 62.4167 3.02893 61.6651 2.63683L59.8149 6.18317ZM60.1288 6.48254C60.241 6.65457 60.3681 6.93789 60.4611 7.38931L64.3789 6.58269C64.2105 5.76478 63.927 4.9841 63.4792 4.29746L60.1288 6.48254ZM60.4623 7.39507C60.5591 7.85818 60.616 8.42661 60.616 9.114H64.616C64.616 8.21472 64.5423 7.36448 64.3777 6.57692L60.4623 7.39507ZM60.616 9.114C60.616 9.8125 60.5588 10.3852 60.4623 10.8469L64.3777 11.6651C64.5426 10.8761 64.616 10.0208 64.616 9.114H60.616ZM60.4623 10.8469C60.3704 11.2866 60.244 11.5687 60.1288 11.7455L63.4792 13.9305C63.924 13.2486 64.2083 12.476 64.3777 11.6651L60.4623 10.8469ZM60.1288 11.7455C60.0208 11.911 59.9084 12.0077 59.785 12.0748L61.695 15.5892C62.4303 15.1897 63.0272 14.6237 63.4792 13.9305L60.1288 11.7455ZM59.8149 12.0588C59.7303 12.103 59.5492 12.168 59.2 12.168V16.168C60.0454 16.168 60.8911 16.009 61.6651 15.6052L59.8149 12.0588ZM59.2 15.146C59.8442 15.146 60.5191 15.0228 61.1492 14.6867L59.2668 11.1573C59.2995 11.1398 59.3182 11.1363 59.3121 11.1376C59.3046 11.1393 59.2698 11.146 59.2 11.146V15.146ZM61.194 14.662C61.7789 14.3306 62.2521 13.8644 62.595 13.293L59.165 11.235C59.1647 11.2355 59.1664 11.2327 59.1704 11.2276C59.1744 11.2225 59.1799 11.2162 59.1868 11.2095C59.2017 11.1948 59.2154 11.1857 59.222 11.182L61.194 14.662ZM62.5696 13.3341C62.8968 12.8176 63.1042 12.2511 63.2276 11.6751L59.3164 10.8369C59.2718 11.0449 59.2179 11.1504 59.1904 11.1939L62.5696 13.3341ZM63.2296 11.6657C63.3469 11.1054 63.398 10.5172 63.398 9.912H59.398C59.398 10.2962 59.3651 10.6039 59.3144 10.8463L63.2296 11.6657ZM63.398 9.912V8.316H59.398V9.912H63.398ZM63.398 8.316C63.398 7.71732 63.3464 7.13424 63.2296 6.57627L59.3144 7.39573C59.3656 7.64042 59.398 7.94401 59.398 8.316H63.398ZM63.2296 6.57627C63.1077 5.99415 62.9015 5.41781 62.5696 4.8939L59.1904 7.0341C59.2132 7.07019 59.2683 7.17518 59.3144 7.39573L63.2296 6.57627ZM62.595 4.93501C62.2462 4.35364 61.7586 3.88033 61.1492 3.55529L59.2668 7.08471C59.249 7.07521 59.2254 7.05919 59.2022 7.03698C59.1793 7.01502 59.1677 6.99742 59.165 6.99299L62.595 4.93501ZM61.194 3.57996C60.5542 3.2174 59.8627 3.082 59.2 3.082V7.082C59.2617 7.082 59.2877 7.08828 59.2864 7.08798C59.2856 7.08779 59.2786 7.08606 59.2667 7.08147C59.2547 7.07684 59.2394 7.0699 59.222 7.06004L61.194 3.57996ZM59.2 3.082C58.5373 3.082 57.8458 3.2174 57.206 3.57996L59.178 7.06004C59.1606 7.0699 59.1453 7.07684 59.1333 7.08147C59.1214 7.08606 59.1144 7.08779 59.1136 7.08798C59.1123 7.08828 59.1383 7.082 59.2 7.082V3.082ZM57.2508 3.55529C56.6516 3.87486 56.1703 4.33501 55.8164 4.8939L59.1956 7.0341C59.1993 7.02839 59.1946 7.03681 59.1794 7.05115C59.1637 7.06582 59.1468 7.07746 59.1332 7.08471L57.2508 3.55529ZM55.791 4.93501C55.4831 5.44825 55.289 6.00988 55.1704 6.57627L59.0856 7.39573C59.135 7.15945 59.1929 7.03975 59.221 6.99299L55.791 4.93501ZM55.1704 6.57627C55.0536 7.13424 55.002 7.71732 55.002 8.316H59.002C59.002 7.94401 59.0344 7.64042 59.0856 7.39573L55.1704 6.57627ZM55.002 8.316V9.912H59.002V8.316H55.002ZM55.002 9.912C55.002 10.5172 55.0531 11.1054 55.1704 11.6657L59.0856 10.8463C59.0349 10.6039 59.002 10.2962 59.002 9.912H55.002ZM55.1724 11.6751C55.2924 12.235 55.4874 12.7869 55.791 13.293L59.221 11.235C59.1886 11.1811 59.1316 11.061 59.0836 10.8369L55.1724 11.6751ZM55.8164 13.3341C56.1642 13.8832 56.6312 14.3363 57.206 14.662L59.178 11.182C59.1786 11.1823 59.181 11.1837 59.1845 11.1863C59.1881 11.189 59.1917 11.192 59.195 11.1951C59.1982 11.1982 59.2 11.2004 59.2004 11.2009C59.2008 11.2014 59.1991 11.1993 59.1956 11.1939L55.8164 13.3341ZM57.2508 14.6867C57.8809 15.0228 58.5558 15.146 59.2 15.146V11.146C59.1302 11.146 59.0954 11.1393 59.0879 11.1376C59.0818 11.1363 59.1005 11.1398 59.1332 11.1573L57.2508 14.6867ZM59.2 7.94C59.1585 7.94 59.216 7.93455 59.3329 7.96795C59.4539 8.00252 59.6939 8.09545 59.9282 8.32979L57.0998 11.1582C57.8063 11.8647 58.7179 11.94 59.2 11.94V7.94ZM59.9796 8.3831C60.0845 8.49605 60.1799 8.64093 60.2456 8.81272C60.3107 8.98295 60.332 9.14133 60.332 9.268H56.332C56.332 9.93345 56.5663 10.5857 57.0484 11.1049L59.9796 8.3831ZM60.332 9.268V8.96H56.332V9.268H60.332ZM60.332 8.96C60.332 9.08667 60.3107 9.24505 60.2456 9.41528C60.1799 9.58707 60.0845 9.73195 59.9796 9.8449L57.0484 7.1231C56.5663 7.64235 56.332 8.29455 56.332 8.96H60.332ZM59.9282 9.89821C59.6939 10.1325 59.4539 10.2255 59.3329 10.26C59.216 10.2935 59.1585 10.288 59.2 10.288V6.288C58.7179 6.288 57.8063 6.36328 57.0998 7.06979L59.9282 9.89821ZM59.2 10.288C59.2433 10.288 59.1794 10.2939 59.053 10.257C58.9226 10.219 58.6563 10.114 58.4064 9.8449L61.3376 7.1231C60.6231 6.35363 59.6591 6.288 59.2 6.288V10.288ZM58.4578 9.89821C58.3509 9.79134 58.245 9.64561 58.1696 9.4625C58.0944 9.27979 58.068 9.1048 58.068 8.96H62.068C62.068 8.24895 61.7962 7.57978 61.2862 7.06979L58.4578 9.89821ZM58.068 8.96V9.268H62.068V8.96H58.068ZM58.068 9.268C58.068 9.1232 58.0944 8.94821 58.1696 8.7655C58.245 8.58239 58.3509 8.43666 58.4578 8.32979L61.2862 11.1582C61.7962 10.6482 62.068 9.97905 62.068 9.268H58.068ZM58.4064 8.3831C58.6563 8.11395 58.9226 8.00902 59.053 7.971C59.1794 7.93415 59.2433 7.94 59.2 7.94V11.94C59.6591 11.94 60.6231 11.8744 61.3376 11.1049L58.4064 8.3831ZM65.4105 13.692L64.4028 15.4196C64.41 15.4238 64.4172 15.4279 64.4245 15.432L65.4105 13.692ZM64.0245 12.446L62.7567 10.8992C61.9391 11.5694 61.7842 12.76 62.4032 13.617L64.0245 12.446ZM64.8785 11.746L66.4373 10.4929C66.1029 10.0769 65.6161 9.81186 65.0852 9.75671C64.5543 9.70155 64.0235 9.86087 63.6107 10.1992L64.8785 11.746ZM66.0825 12.81L65.1112 14.5583C65.1167 14.5613 65.1221 14.5643 65.1275 14.5672L66.0825 12.81ZM69.2325 12.67L70.5495 14.1752L70.5495 14.1752L69.2325 12.67ZM69.3865 10.192L67.9723 11.6062C67.9806 11.6145 67.9889 11.6227 67.9973 11.6308L69.3865 10.192ZM67.9725 9.618L68.3013 7.64521L68.3013 7.64521L67.9725 9.618ZM66.8805 9.436L66.533 11.4056C66.5392 11.4067 66.5455 11.4077 66.5517 11.4088L66.8805 9.436ZM65.6765 9.058L64.7408 10.8256C64.7478 10.8293 64.7548 10.833 64.7618 10.8366L65.6765 9.058ZM64.9065 8.456L63.3506 9.71267C63.3587 9.72266 63.3669 9.73256 63.3751 9.74238L64.9065 8.456ZM64.4865 7.672L62.5658 8.22962C62.5675 8.23532 62.5692 8.24101 62.5709 8.2467L64.4865 7.672ZM65.2425 4.746L66.4704 6.3247L66.4704 6.3247L65.2425 4.746ZM69.5965 4.452L68.7147 6.24715L68.727 6.2531L69.5965 4.452ZM70.8985 5.558L72.2064 7.07107C72.977 6.40497 73.1239 5.26614 72.5476 4.42632L70.8985 5.558ZM70.0725 6.272L68.4826 7.48535C68.8173 7.92382 69.3181 8.20464 69.8668 8.26139C70.4154 8.31813 70.9632 8.14578 71.3804 7.78507L70.0725 6.272ZM69.0925 5.404L68.0822 7.13003L68.0822 7.13003L69.0925 5.404ZM66.0825 5.488L64.8432 3.91823L64.8432 3.91823L66.0825 5.488ZM65.9425 7.826L64.4804 9.19064C64.4961 9.20744 64.5121 9.22396 64.5283 9.24021L65.9425 7.826ZM67.3845 8.414L67.0385 10.3838L67.043 10.3846L67.3845 8.414ZM68.4345 8.596L68.7821 6.62642L68.7761 6.62538L68.4345 8.596ZM69.6385 8.974L70.5532 7.19542L70.5532 7.19542L69.6385 8.974ZM70.4225 9.576L68.8911 10.8624C68.901 10.8741 68.911 10.8857 68.9211 10.8973L70.4225 9.576ZM70.8565 10.36L72.7772 9.80238L72.7772 9.80238L70.8565 10.36ZM70.0865 13.398L68.783 11.8812C68.7791 11.8845 68.7751 11.8879 68.7712 11.8914L70.0865 13.398ZM67.5665 12.168C66.9146 12.168 66.5662 12.0481 66.3966 11.952L64.4245 15.432C65.3748 15.9706 66.4638 16.168 67.5665 16.168V12.168ZM66.4183 11.9644C66.0889 11.7723 65.8394 11.543 65.6459 11.275L62.4032 13.617C62.9376 14.357 63.6122 14.9584 64.4028 15.4196L66.4183 11.9644ZM65.2924 13.9928L66.1464 13.2928L63.6107 10.1992L62.7567 10.8992L65.2924 13.9928ZM63.3198 12.9991C63.8223 13.6242 64.4131 14.1704 65.1112 14.5583L67.0538 11.0617C66.912 10.9829 66.7001 10.8198 66.4373 10.4929L63.3198 12.9991ZM65.1275 14.5672C65.904 14.9893 66.7544 15.16 67.6085 15.16V11.16C67.2866 11.16 67.1197 11.0974 67.0376 11.0528L65.1275 14.5672ZM67.6085 15.16C68.5967 15.16 69.682 14.9343 70.5495 14.1752L67.9155 11.1648C67.9713 11.116 68.0048 11.1119 67.9688 11.1228C67.9261 11.1357 67.8149 11.16 67.6085 11.16V15.16ZM70.5495 14.1752C71.438 13.3977 71.7925 12.3454 71.7925 11.298H67.7925C67.7925 11.3812 67.7795 11.3785 67.8008 11.3262C67.8114 11.3004 67.8275 11.2696 67.8501 11.238C67.8726 11.2065 67.8959 11.182 67.9155 11.1648L70.5495 14.1752ZM71.7925 11.298C71.7925 10.4316 71.5341 9.48545 70.7757 8.7532L67.9973 11.6308C67.9058 11.5424 67.8453 11.4401 67.8135 11.3537C67.785 11.2761 67.7925 11.2468 67.7925 11.298H71.7925ZM70.8007 8.77779C70.0829 8.05989 69.1026 7.77875 68.3013 7.64521L67.6437 11.5908C67.8802 11.6302 68.0154 11.6733 68.0778 11.6986C68.1429 11.7251 68.0772 11.7111 67.9723 11.6062L70.8007 8.77779ZM68.3013 7.64521L67.2093 7.46321L66.5517 11.4088L67.6437 11.5908L68.3013 7.64521ZM67.2281 7.46643C66.8911 7.40697 66.6934 7.33197 66.5912 7.27942L64.7618 10.8366C65.313 11.12 65.9179 11.297 66.533 11.4056L67.2281 7.46643ZM66.6123 7.29042C66.4828 7.22184 66.4415 7.17384 66.4379 7.16962L63.3751 9.74238C63.7636 10.2048 64.2356 10.5582 64.7408 10.8256L66.6123 7.29042ZM66.4624 7.19933C66.4184 7.1448 66.4067 7.11247 66.4022 7.0973L62.5709 8.2467C62.7343 8.79153 63.0027 9.28186 63.3506 9.71267L66.4624 7.19933ZM66.4072 7.11438C66.377 7.01028 66.3605 6.89956 66.3605 6.776H62.3605C62.3605 7.26844 62.4281 7.75505 62.5658 8.22962L66.4072 7.11438ZM66.3605 6.776C66.3605 6.54474 66.3984 6.43248 66.4154 6.39349C66.4275 6.3655 66.4382 6.34978 66.4704 6.3247L64.0147 3.1673C62.8389 4.08176 62.3605 5.40251 62.3605 6.776H66.3605ZM66.4704 6.3247C66.6044 6.22047 66.9178 6.06 67.6225 6.06V2.06C66.3299 2.06 65.0566 2.35687 64.0146 3.1673L66.4704 6.3247ZM67.6225 6.06C68.1953 6.06 68.5309 6.15682 68.7147 6.24711L70.4783 2.65689C69.5981 2.22452 68.6178 2.06 67.6225 2.06V6.06ZM68.727 6.2531C68.9681 6.3695 69.1282 6.51299 69.2495 6.68968L72.5476 4.42632C72.0155 3.651 71.3076 3.05717 70.466 2.6509L68.727 6.2531ZM69.5906 4.04493L68.7646 4.75893L71.3804 7.78507L72.2064 7.07107L69.5906 4.04493ZM71.6624 5.05865C71.2348 4.49831 70.7117 4.03434 70.1029 3.67797L68.0822 7.13003C68.2387 7.22166 68.3689 7.33636 68.4826 7.48535L71.6624 5.05865ZM70.1029 3.67797C69.3211 3.22034 68.4449 3.068 67.6085 3.068V7.068C67.9855 7.068 68.0986 7.13966 68.0822 7.13003L70.1029 3.67797ZM67.6085 3.068C66.6986 3.068 65.6823 3.25579 64.8432 3.91823L67.3218 7.05777C67.2572 7.10881 67.2215 7.11209 67.2608 7.1013C67.3047 7.08921 67.4129 7.068 67.6085 7.068V3.068ZM64.8432 3.91823C63.8943 4.6674 63.5505 5.73734 63.5505 6.748H67.5505C67.5505 6.67591 67.5621 6.70543 67.526 6.79094C67.5078 6.83418 67.4804 6.884 67.4421 6.93442C67.4037 6.9849 67.3618 7.02619 67.3218 7.05776L64.8432 3.91823ZM63.5505 6.748C63.5505 7.61416 63.823 8.48626 64.4804 9.19064L67.4046 6.46136C67.4572 6.51768 67.5014 6.58942 67.5281 6.66301C67.5532 6.73211 67.5505 6.76807 67.5505 6.748H63.5505ZM64.5283 9.24021C65.2453 9.95722 66.2347 10.2426 67.0385 10.3838L67.7306 6.44417C67.4801 6.40016 67.333 6.35334 67.2612 6.32405C67.1849 6.29294 67.2495 6.30457 67.3567 6.41179L64.5283 9.24021ZM67.043 10.3846L68.093 10.5666L68.7761 6.62538L67.7261 6.44338L67.043 10.3846ZM68.087 10.5656C68.4239 10.625 68.6217 10.7 68.7238 10.7526L70.5532 7.19542C70.0021 6.91197 69.3971 6.73497 68.7821 6.62643L68.087 10.5656ZM68.7238 10.7526C68.8617 10.8235 68.8972 10.8697 68.8911 10.8624L71.9539 8.28962C71.5558 7.81568 71.0687 7.46051 70.5532 7.19542L68.7238 10.7526ZM68.9211 10.8973C68.927 10.9039 68.9306 10.9087 68.9325 10.9114C68.9344 10.9141 68.9352 10.9155 68.9352 10.9156C68.9353 10.9158 68.9352 10.9155 68.9351 10.9153C68.935 10.915 68.9353 10.9156 68.9358 10.9176L72.7772 9.80238C72.6087 9.22174 72.3171 8.70154 71.924 8.25474L68.9211 10.8973ZM68.9358 10.9176C68.9645 11.0163 68.9825 11.1313 68.9825 11.27H72.9825C72.9825 10.7741 72.9166 10.2823 72.7772 9.80238L68.9358 10.9176ZM68.9825 11.27C68.9825 11.6893 68.8697 11.8067 68.783 11.8812L71.3901 14.9148C72.4981 13.9626 72.9825 12.6614 72.9825 11.27H68.9825ZM68.7712 11.8914C68.6701 11.9797 68.3669 12.168 67.5665 12.168V16.168C68.9501 16.168 70.327 15.843 71.4018 14.9046L68.7712 11.8914Z" fill="#B1FFD0"/>
<path d="M59.2 14.168C58.6027 14.168 58.0893 14.056 57.66 13.832C57.2307 13.5987 56.876 13.2673 56.596 12.838C56.316 12.4087 56.1107 11.8813 55.98 11.256C55.8493 10.6307 55.784 9.91667 55.784 9.114C55.784 8.32067 55.8493 7.61133 55.98 6.986C56.1107 6.35133 56.316 5.81933 56.596 5.39C56.876 4.96067 57.2307 4.634 57.66 4.41C58.0893 4.17667 58.6027 4.06 59.2 4.06C59.7973 4.06 60.3107 4.17667 60.74 4.41C61.1693 4.634 61.524 4.96067 61.804 5.39C62.084 5.81933 62.2893 6.35133 62.42 6.986C62.5507 7.61133 62.616 8.32067 62.616 9.114C62.616 9.91667 62.5507 10.6307 62.42 11.256C62.2893 11.8813 62.084 12.4087 61.804 12.838C61.524 13.2673 61.1693 13.5987 60.74 13.832C60.3107 14.056 59.7973 14.168 59.2 14.168ZM59.2 13.146C59.592 13.146 59.928 13.0713 60.208 12.922C60.488 12.7633 60.712 12.544 60.88 12.264C61.0573 11.984 61.188 11.648 61.272 11.256C61.356 10.8547 61.398 10.4067 61.398 9.912V8.316C61.398 7.83067 61.356 7.38733 61.272 6.986C61.188 6.58467 61.0573 6.244 60.88 5.964C60.712 5.684 60.488 5.46933 60.208 5.32C59.928 5.16133 59.592 5.082 59.2 5.082C58.808 5.082 58.472 5.16133 58.192 5.32C57.912 5.46933 57.6833 5.684 57.506 5.964C57.338 6.244 57.212 6.58467 57.128 6.986C57.044 7.38733 57.002 7.83067 57.002 8.316V9.912C57.002 10.4067 57.044 10.8547 57.128 11.256C57.212 11.648 57.338 11.984 57.506 12.264C57.6833 12.544 57.912 12.7633 58.192 12.922C58.472 13.0713 58.808 13.146 59.2 13.146ZM59.2 9.94C58.8733 9.94 58.6447 9.87467 58.514 9.744C58.3927 9.61333 58.332 9.45467 58.332 9.268V8.96C58.332 8.77333 58.3927 8.61467 58.514 8.484C58.6447 8.35333 58.8733 8.288 59.2 8.288C59.5267 8.288 59.7507 8.35333 59.872 8.484C60.0027 8.61467 60.068 8.77333 60.068 8.96V9.268C60.068 9.45467 60.0027 9.61333 59.872 9.744C59.7507 9.87467 59.5267 9.94 59.2 9.94ZM67.5665 14.168C66.6892 14.168 65.9705 14.0093 65.4105 13.692C64.8505 13.3653 64.3885 12.95 64.0245 12.446L64.8785 11.746C65.2612 12.222 65.6625 12.5767 66.0825 12.81C66.5119 13.0433 67.0205 13.16 67.6085 13.16C68.3179 13.16 68.8592 12.9967 69.2325 12.67C69.6059 12.3433 69.7925 11.886 69.7925 11.298C69.7925 10.822 69.6572 10.4533 69.3865 10.192C69.1159 9.92133 68.6445 9.73 67.9725 9.618L66.8805 9.436C66.4045 9.352 66.0032 9.226 65.6765 9.058C65.3592 8.89 65.1025 8.68933 64.9065 8.456C64.7105 8.21333 64.5705 7.952 64.4865 7.672C64.4025 7.38267 64.3605 7.084 64.3605 6.776C64.3605 5.88 64.6545 5.20333 65.2425 4.746C65.8305 4.28867 66.6239 4.06 67.6225 4.06C68.4065 4.06 69.0645 4.19067 69.5965 4.452C70.1379 4.71333 70.5719 5.082 70.8985 5.558L70.0725 6.272C69.8019 5.91733 69.4752 5.628 69.0925 5.404C68.7099 5.18 68.2152 5.068 67.6085 5.068C66.9459 5.068 66.4372 5.208 66.0825 5.488C65.7279 5.768 65.5505 6.188 65.5505 6.748C65.5505 7.18667 65.6812 7.546 65.9425 7.826C66.2132 8.09667 66.6939 8.29267 67.3845 8.414L68.4345 8.596C68.9105 8.68 69.3119 8.806 69.6385 8.974C69.9652 9.142 70.2265 9.34267 70.4225 9.576C70.6279 9.80933 70.7725 10.0707 70.8565 10.36C70.9405 10.6493 70.9825 10.9527 70.9825 11.27C70.9825 12.1753 70.6839 12.8847 70.0865 13.398C69.4985 13.9113 68.6585 14.168 67.5665 14.168Z" fill="black"/>
<path d="M74.1154 5.067V3.436H73.5134V3.114H75.0814V3.436H74.4794V5.067H74.1154ZM75.3754 5.067V3.114H75.8304L76.2854 4.052H76.3064L76.7614 3.114H77.1954V5.067H76.8594V4.178L76.8664 3.597H76.8384L76.2854 4.689L75.7324 3.597H75.7044L75.7114 4.178V5.067H75.3754Z" fill="black"/>
<path d="M74.1154 5.067H73.1154C73.1154 5.61928 73.5631 6.067 74.1154 6.067V5.067ZM74.1154 3.436H75.1154C75.1154 2.88372 74.6677 2.436 74.1154 2.436V3.436ZM73.5134 3.436H72.5134C72.5134 3.98828 72.9611 4.436 73.5134 4.436V3.436ZM73.5134 3.114V2.114C72.9611 2.114 72.5134 2.56172 72.5134 3.114H73.5134ZM75.0814 3.114H76.0814C76.0814 2.56172 75.6337 2.114 75.0814 2.114V3.114ZM75.0814 3.436V4.436C75.6337 4.436 76.0814 3.98828 76.0814 3.436H75.0814ZM74.4794 3.436V2.436C73.9271 2.436 73.4794 2.88372 73.4794 3.436H74.4794ZM74.4794 5.067V6.067C75.0317 6.067 75.4794 5.61928 75.4794 5.067H74.4794ZM75.3754 5.067H74.3754C74.3754 5.61928 74.8231 6.067 75.3754 6.067V5.067ZM75.3754 3.114V2.114C74.8231 2.114 74.3754 2.56172 74.3754 3.114H75.3754ZM75.8304 3.114L76.7301 2.67756C76.5629 2.33287 76.2135 2.114 75.8304 2.114V3.114ZM76.2854 4.052L75.3856 4.48844C75.5528 4.83313 75.9023 5.052 76.2854 5.052V4.052ZM76.3064 4.052V5.052C76.6895 5.052 77.0389 4.83313 77.2061 4.48844L76.3064 4.052ZM76.7614 3.114V2.114C76.3783 2.114 76.0288 2.33287 75.8616 2.67756L76.7614 3.114ZM77.1954 3.114H78.1954C78.1954 2.56172 77.7477 2.114 77.1954 2.114V3.114ZM77.1954 5.067V6.067C77.7477 6.067 78.1954 5.61928 78.1954 5.067H77.1954ZM76.8594 5.067H75.8594C75.8594 5.61928 76.3071 6.067 76.8594 6.067V5.067ZM76.8594 4.178L75.8594 4.16595V4.178H76.8594ZM76.8664 3.597L77.8663 3.60905C77.8695 3.34176 77.7656 3.08431 77.5777 2.89417C77.3899 2.70402 77.1337 2.597 76.8664 2.597V3.597ZM76.8384 3.597V2.597C76.4614 2.597 76.1165 2.80895 75.9462 3.14522L76.8384 3.597ZM76.2854 4.689L75.3932 5.14078C75.5635 5.47705 75.9084 5.689 76.2854 5.689C76.6623 5.689 77.0072 5.47705 77.1775 5.14078L76.2854 4.689ZM75.7324 3.597L76.6245 3.14522C76.4542 2.80895 76.1093 2.597 75.7324 2.597V3.597ZM75.7044 3.597V2.597C75.4371 2.597 75.1809 2.70402 74.993 2.89417C74.8051 3.08431 74.7012 3.34176 74.7044 3.60905L75.7044 3.597ZM75.7114 4.178L76.7114 4.178L76.7113 4.16595L75.7114 4.178ZM75.7114 5.067V6.067C76.2637 6.067 76.7114 5.61928 76.7114 5.067H75.7114ZM75.1154 5.067V3.436H73.1154V5.067H75.1154ZM74.1154 2.436H73.5134V4.436H74.1154V2.436ZM74.5134 3.436V3.114H72.5134V3.436H74.5134ZM73.5134 4.114H75.0814V2.114H73.5134V4.114ZM74.0814 3.114V3.436H76.0814V3.114H74.0814ZM75.0814 2.436H74.4794V4.436H75.0814V2.436ZM73.4794 3.436V5.067H75.4794V3.436H73.4794ZM74.4794 4.067H74.1154V6.067H74.4794V4.067ZM76.3754 5.067V3.114H74.3754V5.067H76.3754ZM75.3754 4.114H75.8304V2.114H75.3754V4.114ZM74.9306 3.55044L75.3856 4.48844L77.1851 3.61556L76.7301 2.67756L74.9306 3.55044ZM76.2854 5.052H76.3064V3.052H76.2854V5.052ZM77.2061 4.48844L77.6611 3.55044L75.8616 2.67756L75.4066 3.61556L77.2061 4.48844ZM76.7614 4.114H77.1954V2.114H76.7614V4.114ZM76.1954 3.114V5.067H78.1954V3.114H76.1954ZM77.1954 4.067H76.8594V6.067H77.1954V4.067ZM77.8594 5.067V4.178H75.8594V5.067H77.8594ZM77.8593 4.19005L77.8663 3.60905L75.8664 3.58495L75.8594 4.16595L77.8593 4.19005ZM76.8664 2.597H76.8384V4.597H76.8664V2.597ZM75.9462 3.14522L75.3932 4.23722L77.1775 5.14078L77.7305 4.04878L75.9462 3.14522ZM77.1775 4.23722L76.6245 3.14522L74.8402 4.04878L75.3932 5.14078L77.1775 4.23722ZM75.7324 2.597H75.7044V4.597H75.7324V2.597ZM74.7044 3.60905L74.7114 4.19005L76.7113 4.16595L76.7043 3.58495L74.7044 3.60905ZM74.7114 4.178V5.067H76.7114V4.178H74.7114ZM75.7114 4.067H75.3754V6.067H75.7114V4.067Z" fill="#B1FFD0"/>
<path d="M74.1154 5.067V3.436H73.5134V3.114H75.0814V3.436H74.4794V5.067H74.1154ZM75.3754 5.067V3.114H75.8304L76.2854 4.052H76.3064L76.7614 3.114H77.1954V5.067H76.8594V4.178L76.8664 3.597H76.8384L76.2854 4.689L75.7324 3.597H75.7044L75.7114 4.178V5.067H75.3754Z" fill="black"/>
<path d="M30 14V14C27.7909 14 26 12.2091 26 10V10C26 7.79086 27.7909 6 30 6V6" stroke="black" stroke-width="4" stroke-linecap="round"/>
<path d="M14 10V14" stroke="black" stroke-width="4" stroke-linecap="round"/>
<path d="M37 6V7" stroke="black" stroke-width="4" stroke-linecap="round"/>
<path d="M37 11V14" stroke="black" stroke-width="4" stroke-linecap="round"/>
<path d="M41.5 6H45C47.2091 6 49 7.79086 49 10V10C49 12.2091 47.2091 14 45 14H40" stroke="black" stroke-width="4" stroke-linecap="round"/>
<path d="M3.5 6H7C9.20914 6 11 7.79086 11 10V10C11 12.2091 9.20914 14 7 14H2" stroke="black" stroke-width="4" stroke-linecap="round"/>
<path d="M30 6V6C32.2091 6 34 7.79086 34 10V10C34 12.2091 32.2091 14 30 14V14" stroke="black" stroke-width="4" stroke-linecap="round"/>
<path d="M14 6H21C22.1046 6 23 6.89543 23 8V8C23 9.10457 22.1046 10 21 10H14" stroke="black" stroke-width="4" stroke-linecap="round"/>
<path d="M14 10.4546L22.7995 14.091" stroke="black" stroke-width="4" stroke-linecap="round"/>
<path d="M3.5 4H7C9.20914 4 11 5.79086 11 8V8C11 10.2091 9.20914 12 7 12H2" stroke="black" stroke-width="4" stroke-linecap="round"/>
<path d="M41.5 4H45C47.2091 4 49 5.79086 49 8V8C49 10.2091 47.2091 12 45 12H40" stroke="black" stroke-width="4" stroke-linecap="round"/>
<path d="M14 8L14 12" stroke="black" stroke-width="4" stroke-linecap="round"/>
<path d="M37 4V5" stroke="black" stroke-width="4" stroke-linecap="round"/>
<path d="M37 9V12" stroke="black" stroke-width="4" stroke-linecap="round"/>
<path d="M14 4H21C22.1046 4 23 4.89543 23 6V6C23 7.10457 22.1046 8 21 8H14" stroke="black" stroke-width="4" stroke-linecap="round"/>
<path d="M14 8.45459L22.7995 12.091" stroke="black" stroke-width="4" stroke-linecap="round"/>
<path d="M30 4V4C32.2091 4 34 5.79086 34 8V8C34 10.2091 32.2091 12 30 12V12" stroke="black" stroke-width="4" stroke-linecap="round"/>
<path d="M30 12V12C27.7909 12 26 10.2091 26 8V8C26 5.79086 27.7909 4 30 4V4" stroke="black" stroke-width="4" stroke-linecap="round"/>
<path d="M14 8.45459L22.7995 12.091" stroke="white" stroke-width="3" stroke-linecap="round"/>
<path d="M14 8V12" stroke="white" stroke-width="3" stroke-linecap="round"/>
<path d="M3.5 4H7C9.20914 4 11 5.79086 11 8V8C11 10.2091 9.20914 12 7 12H2" stroke="white" stroke-width="3" stroke-linecap="round"/>
<path d="M30 4V4C32.2091 4 34 5.79086 34 8V8C34 10.2091 32.2091 12 30 12V12" stroke="white" stroke-width="3" stroke-linecap="round"/>
<path d="M30 12V12C27.7909 12 26 10.2091 26 8V8C26 5.79086 27.7909 4 30 4V4" stroke="white" stroke-width="3" stroke-linecap="round"/>
<path d="M37 9V12" stroke="white" stroke-width="3" stroke-linecap="round"/>
<path d="M37 4V5" stroke="white" stroke-width="3" stroke-linecap="round"/>
<path d="M14 4H21C22.1046 4 23 4.89543 23 6V6C23 7.10457 22.1046 8 21 8H14" stroke="white" stroke-width="3" stroke-linecap="round"/>
<path d="M41.5 4H45C47.2091 4 49 5.79086 49 8V8C49 10.2091 47.2091 12 45 12H40" stroke="white" stroke-width="3" stroke-linecap="round"/>
</svg>
