<svg width="235" height="160" viewBox="0 0 235 160" fill="none" xmlns="http://www.w3.org/2000/svg">
<path d="M231.626 55.2455C231.626 84.3004 207.274 107.991 177.063 107.991C146.852 107.991 122.5 84.3004 122.5 55.2455C122.5 26.1906 146.852 2.5 177.063 2.5C207.274 2.5 231.626 26.1906 231.626 55.2455Z" stroke="black" stroke-width="5"/>
<path d="M133.205 20.5459C143.728 27.5265 159.471 31.9603 177.063 31.9603C194.656 31.9603 210.398 27.5265 220.921 20.5459" stroke="black" stroke-width="5"/>
<path d="M133.205 89.9453C143.672 82.9647 159.33 78.531 176.827 78.531C194.325 78.531 209.983 82.9647 220.45 89.9453" stroke="black" stroke-width="5"/>
<path d="M207.103 55.2455C207.103 70.1339 203.543 83.491 197.918 93.0412C192.259 102.649 184.802 107.991 177.063 107.991C169.323 107.991 161.867 102.649 156.208 93.0412C150.583 83.491 147.023 70.1339 147.023 55.2455C147.023 40.3571 150.583 27 156.208 17.4498C161.867 7.84241 169.323 2.5 177.063 2.5C184.802 2.5 192.259 7.84241 197.918 17.4498C203.543 27 207.103 40.3571 207.103 55.2455Z" stroke="black" stroke-width="5"/>
<path d="M176.827 1.36975V109.35" stroke="black" stroke-width="4"/>
<path d="M121.18 54.7891H233.419" stroke="black" stroke-width="4"/>
<rect x="23.5762" y="48.4048" width="119.411" height="73.1279" fill="white"/>
<path d="M23.4561 121.213L23.4561 48.5065L143.118 48.5065L143.118 121.213L23.4561 121.213Z" stroke="black" stroke-width="3"/>
<path d="M23.4561 48.5065L83.2873 93.2488L143.118 48.5065" stroke="black" stroke-width="3"/>
</svg>
